<?xml version="1.0" encoding="UTF-8"?>
<svg version="1.1" xmlns="http://www.w3.org/2000/svg" width="500" height="500">
<path d="M0 0 C0.78890625 -0.00386719 1.5778125 -0.00773438 2.390625 -0.01171875 C3.21046875 -0.00011719 4.0303125 0.01148438 4.875 0.0234375 C6.10476562 0.00603516 6.10476562 0.00603516 7.359375 -0.01171875 C8.54273438 -0.00591797 8.54273438 -0.00591797 9.75 0 C10.46929687 0.00338379 11.18859375 0.00676758 11.9296875 0.01025391 C14.51493304 0.52613498 15.36978505 1.23959251 16.875 3.3984375 C17.21557617 5.8503418 17.21557617 5.8503418 17.16796875 8.72265625 C17.15830078 9.75068359 17.14863281 10.77871094 17.13867188 11.83789062 C17.11353516 12.90974609 17.08839844 13.98160156 17.0625 15.0859375 C17.04219727 16.71112305 17.04219727 16.71112305 17.02148438 18.36914062 C16.98610643 21.04607155 16.93674189 23.72200588 16.875 26.3984375 C19.58439422 26.11482608 22.29222661 25.821827 25 25.5234375 C25.76054687 25.44480469 26.52109375 25.36617187 27.3046875 25.28515625 C31.7149628 24.79090126 35.74131362 24.12134255 39.875 22.3984375 C40.98336423 20.51527591 40.98336423 20.51527591 41.875 18.3984375 C45.02093762 15.15101802 48.17302216 13.86913734 52.375 12.4609375 C57.03609932 10.87391441 59.59889976 9.15631719 62.875 5.3984375 C69.69332836 0.09529322 78.99034747 1.34406596 87.17578125 1.44140625 C90.90721469 1.39806331 94.538112 1.08093277 98.25 0.7109375 C105.39135289 0.151145 109.33941234 1.29392104 115.5 4.9609375 C122.26139287 11.90026176 124.88995299 19.82969933 127.05078125 29.06494141 C128.19441812 33.75608308 129.48034402 36.79580853 132.875 40.3984375 C133.865 41.5121875 133.865 41.5121875 134.875 42.6484375 C138.23076085 44.60596466 140.22653965 44.75001947 144.0625 45.0078125 C145.14917969 45.08483398 146.23585938 45.16185547 147.35546875 45.24121094 C148.18691406 45.2930957 149.01835937 45.34498047 149.875 45.3984375 C149.85928955 44.17737305 149.8435791 42.95630859 149.82739258 41.69824219 C149.77307318 37.16592002 149.73864254 32.63362661 149.71020508 28.10107422 C149.69512305 26.13976197 149.67465453 24.17848342 149.64868164 22.21728516 C149.61227269 19.39737632 149.59526784 16.57791358 149.58203125 13.7578125 C149.56654739 12.88163269 149.55106354 12.00545288 149.53511047 11.10272217 C149.53412908 7.54885296 149.54817214 5.0612087 151.13549805 1.84228516 C153.25665264 0.08165242 154.2656761 -0.09373892 157 -0.0625 C158.18335938 -0.05669922 158.18335938 -0.05669922 159.390625 -0.05078125 C160.21046875 -0.02628906 161.0303125 -0.00179687 161.875 0.0234375 C162.69484375 0.02472656 163.5146875 0.02601563 164.359375 0.02734375 C170.45277256 0.11695254 170.45277256 0.11695254 173.875 2.3984375 C174.17166618 5.43755721 174.27379319 8.27300905 174.24731445 11.31445312 C174.25096512 12.2381218 174.25461578 13.16179047 174.25837708 14.1134491 C174.26650636 17.17738023 174.25285269 20.24078643 174.23828125 23.3046875 C174.23776293 25.42696126 174.23827954 27.54923551 174.23979187 29.67150879 C174.23970204 34.12368925 174.22925057 38.57568904 174.21118164 43.02783203 C174.18849417 48.74476968 174.18794923 54.46144312 174.19469929 60.17841339 C174.19803519 64.5620561 174.19141632 68.94563818 174.18157005 73.32926941 C174.17771123 75.4376748 174.17657265 77.54608692 174.1781559 79.65449524 C174.17852531 82.59726897 174.16594115 85.53969952 174.1496582 88.48242188 C174.15213562 89.36040939 174.15461304 90.23839691 174.15716553 91.14299011 C174.10373976 97.16969774 174.10373976 97.16969774 171.875 99.3984375 C168.5614424 99.84648465 165.21540137 99.72253612 161.875 99.7109375 C160.946875 99.72705078 160.01875 99.74316406 159.0625 99.75976562 C158.175625 99.76041016 157.28875 99.76105469 156.375 99.76171875 C155.15296875 99.76619019 155.15296875 99.76619019 153.90625 99.77075195 C152.90078125 99.5864563 152.90078125 99.5864563 151.875 99.3984375 C149.60901552 95.99946077 149.63757346 94.83524577 149.6796875 90.85546875 C149.68935547 89.24575195 149.68935547 89.24575195 149.69921875 87.60351562 C149.72435547 85.92418945 149.72435547 85.92418945 149.75 84.2109375 C149.75902344 83.07978516 149.76804687 81.94863281 149.77734375 80.78320312 C149.80093035 77.98819121 149.83680159 75.19328791 149.875 72.3984375 C145.915 73.0584375 141.955 73.7184375 137.875 74.3984375 C137.62105469 75.30207031 137.36710938 76.20570313 137.10546875 77.13671875 C136.58919922 78.90595703 136.58919922 78.90595703 136.0625 80.7109375 C135.72605469 81.88269531 135.38960937 83.05445313 135.04296875 84.26171875 C133.64465246 88.01706317 132.41132003 89.63027748 128.875 91.3984375 C123.77368552 91.68212316 118.67144574 91.7121235 113.56298828 91.74853516 C111.85777141 91.76510328 110.15262422 91.79240497 108.44775391 91.83056641 C105.98824074 91.88532807 103.5303531 91.90720479 101.0703125 91.921875 C100.3097757 91.94454437 99.54923889 91.96721375 98.76565552 91.99057007 C94.87236291 91.97502919 93.24103772 91.75050185 90.38720703 89.00561523 C88.15051066 85.14935425 88.57810812 82.77759279 88.875 78.3984375 C87.39 78.8934375 87.39 78.8934375 85.875 79.3984375 C84.10368527 79.39287607 82.33230055 79.34687321 80.5625 79.2734375 C75.72737286 79.2101505 73.18178236 80.19922948 68.875 82.3984375 C64.80769871 82.78889842 60.71981319 82.90218723 56.7578125 81.8203125 C54.66578626 81.18150802 54.66578626 81.18150802 51.875 82.3984375 C50.23220783 82.51636749 48.58447306 82.57355424 46.9375 82.5859375 C46.08285156 82.60011719 45.22820312 82.61429687 44.34765625 82.62890625 C41.59132385 82.37199691 40.14102978 81.98937924 37.875 80.3984375 C32.44234032 72.48189675 30.44585531 63.71333393 28.875 54.3984375 C24.915 54.3984375 20.955 54.3984375 16.875 54.3984375 C16.88547363 55.69056152 16.89594727 56.98268555 16.90673828 58.31396484 C16.94286719 63.09600059 16.96587451 67.87802423 16.98486328 72.66015625 C16.99493712 74.73211697 17.00859666 76.80406343 17.02587891 78.87597656 C17.05006664 81.84964514 17.06146908 84.8231262 17.0703125 87.796875 C17.08063507 88.72712494 17.09095764 89.65737488 17.10159302 90.61581421 C17.10174408 91.47655548 17.10189514 92.33729675 17.10205078 93.22412109 C17.106492 93.98357025 17.11093323 94.74301941 17.11550903 95.52548218 C16.875 97.3984375 16.875 97.3984375 14.875 99.3984375 C12.84375 99.65722656 12.84375 99.65722656 10.375 99.6640625 C9.488125 99.66664063 8.60125 99.66921875 7.6875 99.671875 C6.759375 99.66414063 5.83125 99.65640625 4.875 99.6484375 C3.946875 99.65617187 3.01875 99.66390625 2.0625 99.671875 C0.7321875 99.66800781 0.7321875 99.66800781 -0.625 99.6640625 C-1.4396875 99.66180664 -2.254375 99.65955078 -3.09375 99.65722656 C-5.125 99.3984375 -5.125 99.3984375 -7.125 97.3984375 C-7.32911597 94.43184453 -7.40813889 91.5582234 -7.3996582 88.59008789 C-7.40476913 87.67777908 -7.40988007 86.76547028 -7.41514587 85.82551575 C-7.42908677 82.79897568 -7.42808172 79.77266218 -7.42578125 76.74609375 C-7.42966574 74.648635 -7.4339999 72.55117703 -7.43876648 70.45372009 C-7.4462384 66.05286105 -7.44593041 61.65208221 -7.44067383 57.2512207 C-7.4348783 51.60383362 -7.45180763 45.95677441 -7.4750185 40.30944157 C-7.48973073 35.97637503 -7.49063096 31.64338791 -7.48750877 27.31030083 C-7.48802326 25.22783191 -7.4932848 23.14535869 -7.50332069 21.06291389 C-7.51561899 18.15378474 -7.50893317 15.24530002 -7.49731445 12.33618164 C-7.50495819 11.47114014 -7.51260193 10.60609863 -7.52047729 9.71484375 C-7.46827852 3.81975432 -7.46827852 3.81975432 -5.72319317 1.67795467 C-3.69934175 0.05765451 -2.57126081 0.01209599 0 0 Z M75.875 4.3984375 C79.56672595 7.93634153 82.96890595 7.98959633 87.875 8.3984375 C86.24087557 6.69003469 85.00593906 5.46390703 82.875 4.3984375 C80.5420134 4.35821359 78.20793334 4.35523503 75.875 4.3984375 Z M92.875 9.3984375 C90.90323986 12.5747883 90.65233405 14.93713158 90.75 18.6484375 C90.76804687 19.54046875 90.78609375 20.4325 90.8046875 21.3515625 C90.82789063 22.02703125 90.85109375 22.7025 90.875 23.3984375 C85.04466936 22.732114 81.86035584 19.71096973 78.3125 15.2734375 C75.61098374 11.95768121 75.61098374 11.95768121 71.875 10.3984375 C68.07027246 10.53432063 65.69871899 10.78064826 62.625 13.0859375 C60.63470151 15.71597479 59.23779628 18.40028568 57.875 21.3984375 C56.6375 21.3159375 55.4 21.2334375 54.125 21.1484375 C51.05380225 21.16480267 50.01845281 21.31096627 47.3125 22.9609375 C45.58396692 25.42029374 45.58396692 25.42029374 45.875 28.8359375 C46.9286459 32.58955102 48.22908873 34.58182227 50.875 37.3984375 C46.8380133 35.60422119 44.23019526 34.19291875 41.875 30.3984375 C37.39616304 30.84547736 37.39616304 30.84547736 33.875 33.3984375 C33.03747575 36.18126281 33.03747575 36.18126281 33.875 39.3984375 C36.75162771 42.60195472 40.01002311 45.46594906 43.875 47.3984375 C44.6652832 49.31274414 44.6652832 49.31274414 45.42578125 51.80859375 C45.71259766 52.71673828 45.99941406 53.62488281 46.29492188 54.56054688 C46.88127399 56.46587048 47.46469977 58.37209758 48.04492188 60.27929688 C49.93902662 66.25559631 52.25454889 71.27076389 55.875 76.3984375 C56.266875 75.7590625 56.65875 75.1196875 57.0625 74.4609375 C59.25972296 71.96064931 60.63291433 71.74893325 63.875 71.3984375 C66.85529738 63.86003824 66.44611102 55.03462773 63.75 47.3984375 C61.67233962 44.0741809 59.71438585 42.52583324 56.3984375 40.5390625 C54.875 39.3984375 54.875 39.3984375 53.875 36.3984375 C55.31877535 36.77073177 56.75499097 37.17240618 58.1875 37.5859375 C59.38826172 37.91658203 59.38826172 37.91658203 60.61328125 38.25390625 C63.62508133 39.77801233 64.32553769 41.42237428 65.875 44.3984375 C66.70288086 47.14990234 66.70288086 47.14990234 67.33984375 50.109375 C67.58283203 51.18960938 67.82582031 52.26984375 68.07617188 53.3828125 C68.56526138 55.63495941 69.05225653 57.8875622 69.53710938 60.140625 C70.91055624 66.2287272 72.28600608 71.25058764 75.875 76.3984375 C78.94694908 77.93441204 81.47744293 77.6249413 84.875 77.3984375 C88.85566095 75.82119448 90.48167274 74.98842839 92.875 71.3984375 C91.885 71.3984375 90.895 71.3984375 89.875 71.3984375 C89.545 70.7384375 89.215 70.0784375 88.875 69.3984375 C89.75 67.4609375 89.75 67.4609375 90.875 65.3984375 C92.91486043 59.27885621 93.63372025 51.69311637 91.875 45.3984375 C89.47001165 41.87353833 86.12584334 39.67673495 82.59765625 37.37890625 C79.875 35.3984375 79.875 35.3984375 78.99609375 33.13671875 C78.93615234 32.27626953 78.93615234 32.27626953 78.875 31.3984375 C80.46387641 31.77139895 82.04605486 32.17294751 83.625 32.5859375 C84.50671875 32.80636719 85.3884375 33.02679688 86.296875 33.25390625 C89.82715886 34.82113833 90.95085824 36.00464221 92.875 39.3984375 C93.71503417 43.28595839 94.07969342 47.19095268 94.4375 51.1484375 C95.15565762 58.672876 96.19681564 65.30607117 98.875 72.3984375 C108.5502868 73.2324263 108.5502868 73.2324263 116.875 69.3984375 C120.51128375 61.38449175 122.02689582 53.28422834 121.9375 44.5234375 C121.92847656 43.37101562 121.91945313 42.21859375 121.91015625 41.03125 C121.89855469 40.16242188 121.88695312 39.29359375 121.875 38.3984375 C120.225 38.7284375 118.575 39.0584375 116.875 39.3984375 C117.865 38.0784375 118.855 36.7584375 119.875 35.3984375 C118.555 35.3984375 117.235 35.3984375 115.875 35.3984375 C116.865 34.4703125 116.865 34.4703125 117.875 33.5234375 C120.71996006 29.0781874 120.23589751 25.52945855 119.875 20.3984375 C119.87757813 19.67914063 119.88015625 18.95984375 119.8828125 18.21875 C119.72709085 13.77203173 118.44182194 11.52758977 115.4375 8.4609375 C110.91518792 4.31627152 107.71710557 3.99912212 101.64453125 4.046875 C97.29074898 4.5995413 95.75972554 6.14387535 92.875 9.3984375 Z M122.875 29.3984375 C122.875 36.3284375 122.875 43.2584375 122.875 50.3984375 C126.05595718 46.25266264 126.05595718 46.25266264 126.125 41.5859375 C126.09921875 40.71582031 126.0734375 39.84570312 126.046875 38.94921875 C125.82912964 35.71767962 125.42988706 32.58903808 124.875 29.3984375 C124.215 29.3984375 123.555 29.3984375 122.875 29.3984375 Z M30.875 44.3984375 C29.41390854 48.32136799 30.22832738 51.91491284 31 55.8984375 C31.13470703 56.60242676 31.26941406 57.30641602 31.40820312 58.03173828 C33.70235966 69.69168012 33.70235966 69.69168012 40.875 78.3984375 C43.18667176 73.6306145 43.75913183 69.311473 42.19921875 64.171875 C41.47455365 62.22798663 40.68005149 60.31043478 39.875 58.3984375 C40.535 58.0684375 41.195 57.7384375 41.875 57.3984375 C40.24087557 55.69003469 39.00593906 54.46390703 36.875 53.3984375 C37.205 52.4084375 37.535 51.4184375 37.875 50.3984375 C37.545 49.7384375 37.215 49.0784375 36.875 48.3984375 C35.885 48.0684375 34.895 47.7384375 33.875 47.3984375 C32.1875 45.8359375 32.1875 45.8359375 30.875 44.3984375 Z M132.875 44.3984375 C130.52031442 47.93046588 130.07988046 51.11389731 129.4375 55.2109375 C128.14625895 62.9994421 126.59702143 70.69208628 124.875 78.3984375 C124.215 77.7384375 123.555 77.0784375 122.875 76.3984375 C122.545 77.0584375 122.215 77.7184375 121.875 78.3984375 C121.215 77.7384375 120.555 77.0784375 119.875 76.3984375 C119.215 76.3984375 118.555 76.3984375 117.875 76.3984375 C117.545 77.0584375 117.215 77.7184375 116.875 78.3984375 C116.215 77.0784375 115.555 75.7584375 114.875 74.3984375 C114.545 75.7184375 114.215 77.0384375 113.875 78.3984375 C113.38 75.9234375 113.38 75.9234375 112.875 73.3984375 C111.64523437 73.41583984 111.64523437 73.41583984 110.390625 73.43359375 C108.77414062 73.44712891 108.77414062 73.44712891 107.125 73.4609375 C105.52398437 73.47833984 105.52398437 73.47833984 103.890625 73.49609375 C100.875 73.3984375 100.875 73.3984375 98.65234375 72.76953125 C98.06582031 72.64707031 97.47929687 72.52460938 96.875 72.3984375 C93.22426013 75.11526717 92.0185758 76.72473567 91.0625 81.2109375 C91.000625 82.2628125 90.93875 83.3146875 90.875 84.3984375 C91.535 84.3984375 92.195 84.3984375 92.875 84.3984375 C93.205 86.0484375 93.535 87.6984375 93.875 89.3984375 C98.33 88.9034375 98.33 88.9034375 102.875 88.3984375 C103.205 87.0784375 103.535 85.7584375 103.875 84.3984375 C101.895 83.7384375 99.915 83.0784375 97.875 82.3984375 C103.64874848 80.47385467 110.03717969 80.3762119 115.78125 82.4453125 C119.32344929 84.21641214 122.58075992 86.20227745 125.875 88.3984375 C128.44400326 88.63527855 128.44400326 88.63527855 130.875 87.3984375 C133.82049113 81.69299799 135.16849051 75.69818239 136.5625 69.4609375 C136.78744141 68.51025391 137.01238281 67.55957031 137.24414062 66.58007812 C139.51878008 56.92771098 139.51878008 56.92771098 137.5625 47.4609375 C135.96260823 45.13097747 135.96260823 45.13097747 132.875 44.3984375 Z M58.875 78.3984375 C60.6422503 80.62604824 60.6422503 80.62604824 62.8984375 80.4453125 C63.67445313 80.34734375 64.45046875 80.249375 65.25 80.1484375 C66.02085937 80.06078125 66.79171875 79.973125 67.5859375 79.8828125 C69.9536793 79.38178864 71.76851698 78.57191206 73.875 77.3984375 C73.215 76.0784375 72.555 74.7584375 71.875 73.3984375 C65.45213882 72.75615138 63.29009796 74.09102486 58.875 78.3984375 Z M56.875 76.3984375 C57.535 77.0584375 58.195 77.7184375 58.875 78.3984375 C58.875 77.7384375 58.875 77.0784375 58.875 76.3984375 C58.215 76.3984375 57.555 76.3984375 56.875 76.3984375 Z M41.875 77.3984375 C41.545 78.0584375 41.215 78.7184375 40.875 79.3984375 C43.88824195 80.90505847 46.55786377 80.57614123 49.875 80.3984375 C50.535 79.7384375 51.195 79.0784375 51.875 78.3984375 C48.575 78.0684375 45.275 77.7384375 41.875 77.3984375 Z " fill="#2D5645" transform="translate(170.125,184.6015625)"/>
<path d="M0 0 C0.886875 -0.00257813 1.77375 -0.00515625 2.6875 -0.0078125 C4.0796875 0.00378906 4.0796875 0.00378906 5.5 0.015625 C6.428125 0.00789062 7.35625 0.00015625 8.3125 -0.0078125 C9.6428125 -0.00394531 9.6428125 -0.00394531 11 0 C11.8146875 0.00225586 12.629375 0.00451172 13.46875 0.00683594 C15.5 0.265625 15.5 0.265625 17.5 2.265625 C17.69815184 4.69392561 17.77283267 7.00816519 17.75878906 9.4375 C17.7622937 10.17585083 17.76579834 10.91420166 17.76940918 11.67492676 C17.77823049 14.12192108 17.77237604 16.5686276 17.765625 19.015625 C17.76697154 20.71191463 17.76891197 22.40820388 17.77142334 24.10449219 C17.77437514 27.6621467 17.77007519 31.21970088 17.76074219 34.77734375 C17.74934759 39.34413641 17.75590677 43.910694 17.76788712 48.47747803 C17.77510422 51.98097514 17.77281848 55.48441626 17.76763153 58.98791504 C17.76629462 60.67207873 17.7679442 62.35624746 17.77259064 64.04040527 C17.77765347 66.39165774 17.76994933 68.74252623 17.75878906 71.09375 C17.76283752 71.79407349 17.76688599 72.49439697 17.77105713 73.21594238 C17.72852915 78.03709585 17.72852915 78.03709585 15.5 80.265625 C12.1864424 80.71367215 8.84040137 80.58972362 5.5 80.578125 C4.571875 80.59423828 3.64375 80.61035156 2.6875 80.62695312 C1.800625 80.62759766 0.91375 80.62824219 0 80.62890625 C-1.22203125 80.63337769 -1.22203125 80.63337769 -2.46875 80.63793945 C-3.1390625 80.51507568 -3.809375 80.39221191 -4.5 80.265625 C-6.99832623 76.51813565 -6.75338692 74.55236747 -6.75878906 70.07202148 C-6.7622937 69.3432782 -6.76579834 68.61453491 -6.76940918 67.8637085 C-6.77821276 65.45461506 -6.7723829 63.04581517 -6.765625 60.63671875 C-6.7669719 58.9642786 -6.76891264 57.29183883 -6.77142334 55.61940002 C-6.77437261 52.11479972 -6.77008275 48.61030135 -6.76074219 45.10571289 C-6.74933892 40.60732901 -6.75591384 36.10918354 -6.76788712 31.61080837 C-6.77510352 28.15792535 -6.77281896 24.70509914 -6.76763153 21.25221443 C-6.76629488 19.59317052 -6.76794329 17.93412149 -6.77259064 16.27508354 C-6.77765328 13.95986065 -6.76995002 11.64502773 -6.75878906 9.32983398 C-6.75719788 8.01095688 -6.75560669 6.69207977 -6.75396729 5.33323669 C-6.34635142 0.40973963 -4.47458714 0.01239008 0 0 Z " fill="#2C5745" transform="translate(142.5,194.734375)"/>
<path d="M0 0 C2.03125 -0.37231445 2.03125 -0.37231445 4.5 -0.36328125 C5.386875 -0.36263672 6.27375 -0.36199219 7.1875 -0.36132812 C8.5796875 -0.3371582 8.5796875 -0.3371582 10 -0.3125 C10.928125 -0.31572266 11.85625 -0.31894531 12.8125 -0.32226562 C19.73305861 -0.26694139 19.73305861 -0.26694139 22 2 C22.19815184 4.42830061 22.27283267 6.74254019 22.25878906 9.171875 C22.2622937 9.91022583 22.26579834 10.64857666 22.26940918 11.40930176 C22.27823049 13.85629608 22.27237604 16.3030026 22.265625 18.75 C22.26697154 20.44628963 22.26891197 22.14257888 22.27142334 23.83886719 C22.27437514 27.3965217 22.27007519 30.95407588 22.26074219 34.51171875 C22.24934759 39.07851141 22.25590677 43.645069 22.26788712 48.21185303 C22.27510422 51.71535014 22.27281848 55.21879126 22.26763153 58.72229004 C22.26629462 60.40645373 22.2679442 62.09062246 22.27259064 63.77478027 C22.27765347 66.12603274 22.26994933 68.47690123 22.25878906 70.828125 C22.26283752 71.52844849 22.26688599 72.22877197 22.27105713 72.95031738 C22.22852915 77.77147085 22.22852915 77.77147085 20 80 C16.87453844 80.44626783 13.7162016 80.32410302 10.5625 80.3125 C9.69044922 80.32861328 8.81839844 80.34472656 7.91992188 80.36132812 C6.66211914 80.36229492 6.66211914 80.36229492 5.37890625 80.36328125 C4.6113501 80.36626221 3.84379395 80.36924316 3.05297852 80.37231445 C0.32434889 79.87746843 -0.3661517 79.24833753 -2 77 C-2.3742218 73.85009766 -2.3742218 73.85009766 -2.37231445 69.9140625 C-2.37596512 69.19667908 -2.37961578 68.47929565 -2.38337708 67.74017334 C-2.39148484 65.36820827 -2.37787116 62.9969259 -2.36328125 60.625 C-2.36276267 58.97737631 -2.3632803 57.32975199 -2.36479187 55.68212891 C-2.36470214 52.22874721 -2.35427061 48.77559891 -2.33618164 45.32226562 C-2.31349436 40.8934652 -2.31295023 36.46500587 -2.31969929 32.03616333 C-2.32303921 28.63383955 -2.31640876 25.23159368 -2.30657005 21.82928467 C-2.30271815 20.19619148 -2.3015698 18.56308963 -2.3031559 16.92999268 C-2.30352636 14.6484727 -2.29091221 12.36739161 -2.2746582 10.0859375 C-2.27005081 8.7870459 -2.26544342 7.4881543 -2.26069641 6.14990234 C-2 3 -2 3 0 0 Z " fill="#2C5845" transform="translate(349,195)"/>
<path d="M0 0 C4.74940501 4.35045498 6.16471425 8.94635075 6.515625 15.2890625 C6.24574455 22.23848415 3.38735388 26.47654506 -1.546875 31.1640625 C-7.53774993 35.0581312 -13.04128851 35.57510306 -20.046875 34.7890625 C-26.71432882 32.81018919 -30.62172898 28.82246324 -34.16015625 22.9375 C-36.29661047 17.76106907 -35.67791825 11.58255384 -33.859375 6.4140625 C-29.82797266 0.5754798 -25.48958893 -2.77005731 -18.734375 -4.9609375 C-11.384943 -5.64460559 -6.00407709 -4.42958135 0 0 Z M-20.421875 7.8515625 C-23.33299909 11.10924899 -24.2242329 12.44379406 -24.046875 16.7890625 C-21.79966359 21.0311439 -21.79966359 21.0311439 -18.046875 23.7890625 C-14.06128534 24.16506152 -11.72107875 24.15547758 -8.171875 22.2265625 C-5.33569631 18.97329871 -4.89844585 17.09350789 -5.046875 12.7890625 C-7.43965488 8.75124645 -9.03437583 7.13883494 -13.484375 5.6015625 C-17.197846 5.51367084 -17.197846 5.51367084 -20.421875 7.8515625 Z " fill="#2D5544" transform="translate(190.046875,318.2109375)"/>
<path d="M0 0 C3.320625 -0.061875 6.64125 -0.12375 10.0625 -0.1875 C11.09511963 -0.21481201 12.12773926 -0.24212402 13.19165039 -0.27026367 C18.93080989 -0.32174837 22.94573291 0.2204896 28 3 C30.99252009 6.19202143 31.91945502 8.93277903 32.25 13.3125 C31.87731037 18.80967203 29.92352026 22.26331404 26 26 C26.75796875 27.04800781 26.75796875 27.04800781 27.53125 28.1171875 C28.50578125 29.48230469 28.50578125 29.48230469 29.5 30.875 C30.1496875 31.77992188 30.799375 32.68484375 31.46875 33.6171875 C33 36 33 36 33 38 C28.5231372 38.60589121 24.4502744 38.8797054 20 38 C16.8258331 35.08181431 14.89133905 31.85145407 13 28 C12.67 31.3 12.34 34.6 12 38 C8.04 38 4.08 38 0 38 C0 25.46 0 12.92 0 0 Z M12 10 C12 12.31 12 14.62 12 17 C16.14093698 17.20970559 16.14093698 17.20970559 20 16 C20 14.35 20 12.7 20 11 C17.29120665 9.64560332 14.99066732 9.93498549 12 10 Z " fill="#2D5545" transform="translate(307,314)"/>
<path d="M0 0 C3.96 0 7.92 0 12 0 C12.04898437 1.69769531 12.09796875 3.39539063 12.1484375 5.14453125 C12.22346444 7.36720423 12.2990123 9.58985966 12.375 11.8125 C12.4059375 12.93205078 12.436875 14.05160156 12.46875 15.20507812 C12.50742187 16.27822266 12.54609375 17.35136719 12.5859375 18.45703125 C12.6173584 19.44678955 12.6487793 20.43654785 12.68115234 21.45629883 C12.83773433 24.24075094 12.83773433 24.24075094 15 27 C18.08365871 27.2502157 18.08365871 27.2502157 21 27 C22.28447479 24.43105043 22.19321334 22.46297624 22.28125 19.58984375 C22.31863281 18.51798828 22.35601562 17.44613281 22.39453125 16.34179688 C22.46496465 14.06836312 22.53527674 11.7949256 22.60546875 9.52148438 C22.64285156 8.45091797 22.68023437 7.38035156 22.71875 6.27734375 C22.74904297 5.28984131 22.77933594 4.30233887 22.81054688 3.28491211 C23 1 23 1 24 0 C26.01964199 -0.07244053 28.04167124 -0.08377188 30.0625 -0.0625 C31.16722656 -0.05347656 32.27195312 -0.04445313 33.41015625 -0.03515625 C34.26480469 -0.02355469 35.11945313 -0.01195312 36 0 C36.11703447 4.16642697 36.18753101 8.3324259 36.25 12.5 C36.30027344 14.25957031 36.30027344 14.25957031 36.3515625 16.0546875 C36.43201764 23.21519496 35.96912688 27.96436182 32 34 C25.56930213 39.11831055 19.97243668 39.61766367 12 39 C6.70450543 37.23483514 4.24278522 34.35459729 1 30 C-0.40912096 27.18175808 -0.11183553 24.82748718 -0.09765625 21.6796875 C-0.09443359 20.42285156 -0.09121094 19.16601562 -0.08789062 17.87109375 C-0.07951172 16.55238281 -0.07113281 15.23367188 -0.0625 13.875 C-0.05748489 12.53515789 -0.05292201 11.195314 -0.04882812 9.85546875 C-0.03701086 6.57026794 -0.02053617 3.28515603 0 0 Z " fill="#2D5544" transform="translate(267,314)"/>
<path d="M0 0 C0.33 0.66 0.66 1.32 1 2 C0.22265625 3.9453125 0.22265625 3.9453125 -0.9375 6.125 C-1.31777344 6.84945313 -1.69804687 7.57390625 -2.08984375 8.3203125 C-2.39019531 8.87460937 -2.69054687 9.42890625 -3 10 C-3.99 9.690625 -4.98 9.38125 -6 9.0625 C-9.97731122 7.91566793 -13.88767379 7.43287644 -18 7 C-17.67 7.66 -17.34 8.32 -17 9 C-14.95336037 9.50653599 -12.88601481 9.9305984 -10.8125 10.3125 C-5.12059153 11.56834369 -1.71978735 12.45359324 2 17 C3.33088156 21.22750613 3.1682886 23.44838737 1.875 27.6875 C-0.64887142 32.1463395 -3.1460118 34.38200393 -8 36 C-16.95861153 36.87952708 -23.37192386 35.82135738 -31 31 C-29.84414715 27.08788267 -28.64465038 24.1254959 -26 21 C-25.21625 21.495 -24.4325 21.99 -23.625 22.5 C-18.95078158 24.43415935 -14.98557619 24.26602877 -10 24 C-10 23.67 -10 23.34 -10 23 C-11.30324219 22.76216797 -11.30324219 22.76216797 -12.6328125 22.51953125 C-19.41023357 21.14736882 -24.24569892 20.15049284 -29 15 C-30.5992715 11.801457 -30.36127908 8.47898371 -30 5 C-28.56688794 1.41721985 -27.43105423 0.26238084 -24.125 -1.75 C-16.07768344 -4.96892662 -7.4640553 -4.78465083 0 0 Z " fill="#2D5544" transform="translate(229,317)"/>
<path d="M0 0 C1.51400391 0.01740234 1.51400391 0.01740234 3.05859375 0.03515625 C4.07050781 0.04417969 5.08242188 0.05320312 6.125 0.0625 C7.29869141 0.07990234 7.29869141 0.07990234 8.49609375 0.09765625 C10.63684027 5.18610445 12.77296631 10.2764574 14.90478516 15.36865234 C15.63104796 17.10160964 16.35858293 18.83403434 17.08740234 20.56591797 C18.1332144 23.05167805 19.17447495 25.53930146 20.21484375 28.02734375 C20.54295044 28.80447723 20.87105713 29.58161072 21.20910645 30.3822937 C23.49609375 35.86991284 23.49609375 35.86991284 23.49609375 38.09765625 C19.53609375 38.09765625 15.57609375 38.09765625 11.49609375 38.09765625 C10.83609375 36.44765625 10.17609375 34.79765625 9.49609375 33.09765625 C2.56609375 32.60265625 2.56609375 32.60265625 -4.50390625 32.09765625 C-4.99890625 34.57265625 -4.99890625 34.57265625 -5.50390625 37.09765625 C-6.50390625 38.09765625 -6.50390625 38.09765625 -9.0078125 38.1953125 C-10.01714844 38.18371094 -11.02648437 38.17210937 -12.06640625 38.16015625 C-13.07832031 38.15113281 -14.09023438 38.14210938 -15.1328125 38.1328125 C-15.91527344 38.12121094 -16.69773437 38.10960937 -17.50390625 38.09765625 C-16.81434946 33.69168446 -15.28466811 29.74512955 -13.59765625 25.64453125 C-13.17051331 24.59329071 -13.17051331 24.59329071 -12.73474121 23.52081299 C-12.13500501 22.04751939 -11.53311643 20.57510033 -10.92919922 19.10351562 C-10.002118 16.84329651 -9.08259 14.58011311 -8.1640625 12.31640625 C-7.57986853 10.88393447 -6.99524812 9.45163651 -6.41015625 8.01953125 C-6.13409546 7.34041687 -5.85803467 6.66130249 -5.5736084 5.96160889 C-3.17125222 0.12368378 -3.17125222 0.12368378 0 0 Z M2.49609375 15.09765625 C1.01109375 19.05765625 1.01109375 19.05765625 -0.50390625 23.09765625 C1.47609375 23.09765625 3.45609375 23.09765625 5.49609375 23.09765625 C4.94885692 19.7230291 4.44119375 18.01530625 2.49609375 15.09765625 Z " fill="#2D5645" transform="translate(358.50390625,313.90234375)"/>
<path d="M0 0 C0.886875 -0.00257813 1.77375 -0.00515625 2.6875 -0.0078125 C4.0796875 0.00378906 4.0796875 0.00378906 5.5 0.015625 C6.428125 0.00789062 7.35625 0.00015625 8.3125 -0.0078125 C9.6428125 -0.00394531 9.6428125 -0.00394531 11 0 C11.8146875 0.00225586 12.629375 0.00451172 13.46875 0.00683594 C15.5 0.265625 15.5 0.265625 17.5 2.265625 C17.75878906 5.3984375 17.75878906 5.3984375 17.765625 9.390625 C17.76753845 10.0933252 17.7694519 10.79602539 17.77142334 11.52001953 C17.77278475 13.00618854 17.76909132 14.49236945 17.76074219 15.97851562 C17.75004154 18.25678146 17.76063839 20.53425877 17.7734375 22.8125 C17.7721159 24.25521008 17.76955349 25.69791966 17.765625 27.140625 C17.76336914 28.45804688 17.76111328 29.77546875 17.75878906 31.1328125 C17.5 34.265625 17.5 34.265625 15.5 36.265625 C12.1864424 36.71367215 8.84040137 36.58972362 5.5 36.578125 C4.571875 36.59423828 3.64375 36.61035156 2.6875 36.62695312 C1.800625 36.62759766 0.91375 36.62824219 0 36.62890625 C-1.22203125 36.63337769 -1.22203125 36.63337769 -2.46875 36.63793945 C-3.1390625 36.51507568 -3.809375 36.39221191 -4.5 36.265625 C-6.96466096 32.56863356 -6.75779399 30.67141569 -6.765625 26.26171875 C-6.76753845 25.58262955 -6.7694519 24.90354034 -6.77142334 24.20387268 C-6.77278247 22.77075835 -6.76910496 21.33763159 -6.76074219 19.90454102 C-6.75002167 17.70756515 -6.76065453 15.51140386 -6.7734375 13.31445312 C-6.77211618 11.92187319 -6.76955436 10.52929377 -6.765625 9.13671875 C-6.76336914 7.86755615 -6.76111328 6.59839355 -6.75878906 5.29077148 C-6.34004509 0.39581244 -4.44322749 0.01230324 0 0 Z " fill="#2C5644" transform="translate(380.5,216.734375)"/>
<path d="M0 0 C0.886875 -0.00257813 1.77375 -0.00515625 2.6875 -0.0078125 C4.0796875 0.00378906 4.0796875 0.00378906 5.5 0.015625 C6.428125 0.00789062 7.35625 0.00015625 8.3125 -0.0078125 C9.6428125 -0.00394531 9.6428125 -0.00394531 11 0 C11.8146875 0.00225586 12.629375 0.00451172 13.46875 0.00683594 C15.5 0.265625 15.5 0.265625 17.5 2.265625 C17.75878906 5.3984375 17.75878906 5.3984375 17.765625 9.390625 C17.76753845 10.0933252 17.7694519 10.79602539 17.77142334 11.52001953 C17.77278475 13.00618854 17.76909132 14.49236945 17.76074219 15.97851562 C17.75004154 18.25678146 17.76063839 20.53425877 17.7734375 22.8125 C17.7721159 24.25521008 17.76955349 25.69791966 17.765625 27.140625 C17.76336914 28.45804688 17.76111328 29.77546875 17.75878906 31.1328125 C17.5 34.265625 17.5 34.265625 15.5 36.265625 C12.1864424 36.71367215 8.84040137 36.58972362 5.5 36.578125 C4.571875 36.59423828 3.64375 36.61035156 2.6875 36.62695312 C1.800625 36.62759766 0.91375 36.62824219 0 36.62890625 C-1.22203125 36.63337769 -1.22203125 36.63337769 -2.46875 36.63793945 C-3.1390625 36.51507568 -3.809375 36.39221191 -4.5 36.265625 C-6.96466096 32.56863356 -6.75779399 30.67141569 -6.765625 26.26171875 C-6.76753845 25.58262955 -6.7694519 24.90354034 -6.77142334 24.20387268 C-6.77278247 22.77075835 -6.76910496 21.33763159 -6.76074219 19.90454102 C-6.75002167 17.70756515 -6.76065453 15.51140386 -6.7734375 13.31445312 C-6.77211618 11.92187319 -6.76955436 10.52929377 -6.765625 9.13671875 C-6.76336914 7.86755615 -6.76111328 6.59839355 -6.75878906 5.29077148 C-6.34004509 0.39581244 -4.44322749 0.01230324 0 0 Z " fill="#2C5644" transform="translate(115.5,216.734375)"/>
<path d="M0 0 C3.135 -0.061875 6.27 -0.12375 9.5 -0.1875 C10.95696289 -0.22846802 10.95696289 -0.22846802 12.44335938 -0.27026367 C18.34005315 -0.32603997 22.63802995 0.50620086 28 3 C31.07485305 6.07485305 31.29249162 9.18125287 31.5625 13.375 C31.43764801 18.50780385 30.1367881 21.11314216 26.60546875 24.7578125 C22.17205484 28.18804516 16.28279928 27.06215058 11 27 C11 30.63 11 34.26 11 38 C7.37 38 3.74 38 0 38 C0 25.46 0 12.92 0 0 Z M11 10 C11 12.31 11 14.62 11 17 C14.41656024 17.16677282 14.41656024 17.16677282 18 17 C18.66 16.34 19.32 15.68 20 15 C19.59471099 12.21762345 19.59471099 12.21762345 18 10 C15.66702567 9.95907063 13.33294775 9.95758277 11 10 Z " fill="#2D5644" transform="translate(122,314)"/>
<path d="M0 0 C10.23 0 20.46 0 31 0 C31 3.63 31 7.26 31 11 C28.03 11 25.06 11 22 11 C22 19.91 22 28.82 22 38 C18.04 38 14.08 38 10 38 C10 29.09 10 20.18 10 11 C6.7 11 3.4 11 0 11 C0 7.37 0 3.74 0 0 Z " fill="#2D5544" transform="translate(233,314)"/>
<path d="M0 0 C1.9375 0.1875 1.9375 0.1875 4 1 C5.25 3.0625 5.25 3.0625 6 5 C6.66 3.35 7.32 1.7 8 0 C9.32 0 10.64 0 12 0 C13.10228696 4.40914783 13.07654536 8.48382401 13 13 C12.2575 12.814375 11.515 12.62875 10.75 12.4375 C8.05009037 12.00796892 6.55368923 12.14877026 4 13 C3.67 12.34 3.34 11.68 3 11 C2.67 11.66 2.34 12.32 2 13 C0.68 13 -0.64 13 -2 13 C-1.85966889 11.02043559 -1.7125877 9.04134859 -1.5625 7.0625 C-1.48128906 5.96035156 -1.40007812 4.85820312 -1.31640625 3.72265625 C-1 1 -1 1 0 0 Z " fill="#2E5645" transform="translate(179,370)"/>
<path d="M0 0 C0.928125 0.20625 1.85625 0.4125 2.8125 0.625 C3.9375 4.375 3.9375 4.375 2.8125 6.625 C4.1325 6.955 5.4525 7.285 6.8125 7.625 C6.8125 9.29166667 6.8125 10.95833333 6.8125 12.625 C5.04436888 12.87415939 3.27275018 13.09866632 1.5 13.3125 C0.51386719 13.44011719 -0.47226563 13.56773437 -1.48828125 13.69921875 C-4.1875 13.625 -4.1875 13.625 -6.05078125 12.4296875 C-7.53405759 10.07479517 -7.4143756 8.80081394 -7.0625 6.0625 C-6.97742188 5.27746094 -6.89234375 4.49242187 -6.8046875 3.68359375 C-5.66627681 -0.11351027 -3.65561469 -0.43007232 0 0 Z " fill="#315546" transform="translate(220.1875,370.375)"/>
<path d="M0 0 C2.475 0.495 2.475 0.495 5 1 C5.66 1.99 6.32 2.98 7 4 C7.66 2.68 8.32 1.36 9 0 C9.99 0 10.98 0 12 0 C12 4.29 12 8.58 12 13 C10.35 12.67 8.7 12.34 7 12 C6.34 11.01 5.68 10.02 5 9 C4.67 10.32 4.34 11.64 4 13 C2.68 13 1.36 13 0 13 C0 8.71 0 4.42 0 0 Z " fill="#305644" transform="translate(301,370)"/>
<path d="M0 0 C2 2 2 2 2.375 5.9375 C2.29026119 8.85039646 2.22490881 9.71453881 0.375 12.0625 C-2.87278698 13.34452118 -4.69296839 13.05543562 -8 12 C-9.9375 10.3125 -9.9375 10.3125 -11 8 C-10.92897215 4.5196355 -10.61415498 2.70514091 -8.3125 0.0625 C-5.16096578 -1.38550221 -3.29050737 -0.929926 0 0 Z M-6 3 C-6.33 4.65 -6.66 6.3 -7 8 C-4.525 8.495 -4.525 8.495 -2 9 C-2.99 8.67 -3.98 8.34 -5 8 C-5 6.68 -5 5.36 -5 4 C-4.01 3.67 -3.02 3.34 -2 3 C-3.32 3 -4.64 3 -6 3 Z " fill="#305446" transform="translate(144,371)"/>
<path d="M0 0 C3.5625 0.25 3.5625 0.25 7 1 C7.33 1.66 7.66 2.32 8 3 C7.67 3.99 7.34 4.98 7 6 C7.33 6.33 7.66 6.66 8 7 C8.25 9.4375 8.25 9.4375 8 12 C4.1496895 14.56687367 2.41430237 13.83288724 -2 13 C-2 11.68 -2 10.36 -2 9 C-1.01 9 -0.02 9 1 9 C0.01 8.34 -0.98 7.68 -2 7 C-2.3125 4.5 -2.3125 4.5 -2 2 C-1.34 1.34 -0.68 0.68 0 0 Z " fill="#325245" transform="translate(345,370)"/>
<path d="M0 0 C-0.20625 0.556875 -0.4125 1.11375 -0.625 1.6875 C-1.10695211 4.659538 -0.26565028 6.31979941 1 9 C-0.625 11.0625 -0.625 11.0625 -3 13 C-6.25 12.75 -6.25 12.75 -9 12 C-9.33 10.68 -9.66 9.36 -10 8 C-8.68 8 -7.36 8 -6 8 C-7.32 7.34 -8.64 6.68 -10 6 C-9.625 3.0625 -9.625 3.0625 -9 0 C-5.93109813 -1.53445094 -3.29905734 -0.54984289 0 0 Z M-6 3 C-2 4 -2 4 -2 4 Z " fill="#325145" transform="translate(373,371)"/>
<path d="M0 0 C2.64 0 5.28 0 8 0 C9.12556187 3.3766856 8.6876151 5.56192451 8 9 C8.33 10.32 8.66 11.64 9 13 C6.03 13 3.06 13 0 13 C0 8.71 0 4.42 0 0 Z " fill="#315444" transform="translate(324,370)"/>
<path d="M0 0 C-0.63107644 2.94502337 -1.26270323 5.51814748 -3 8 C-8.08011327 10.60200924 -12.5767638 9.89182106 -18 9 C-17.01 8.34 -16.02 7.68 -15 7 C-15.33 6.01 -15.66 5.02 -16 4 C-10.24327539 0.99080304 -6.48697489 -0.14743125 0 0 Z " fill="#2F4F42" transform="translate(288,246)"/>
<path d="M0 0 C1.34313399 0.64669414 2.67391178 1.31903578 4 2 C4.89847656 2.35964844 5.79695313 2.71929687 6.72265625 3.08984375 C9 5 9 5 9.55859375 8.94140625 C9.54399507 10.48223045 9.5026579 12.02298488 9.4375 13.5625 C9.43169922 14.34302734 9.42589844 15.12355469 9.41992188 15.92773438 C9.29531112 21.70468888 9.29531112 21.70468888 7 24 C6.87625 23.030625 6.7525 22.06125 6.625 21.0625 C6.315625 19.5465625 6.315625 19.5465625 6 18 C5.34 17.67 4.68 17.34 4 17 C3.1986381 14.14258915 2.50291494 11.33288557 1.875 8.4375 C1.69324219 7.63119141 1.51148438 6.82488281 1.32421875 5.99414062 C0.87532882 3.99776175 0.43670257 1.9990802 0 0 Z " fill="#335146" transform="translate(252,225)"/>
<path d="M0 0 C0.33 0 0.66 0 1 0 C1.0154612 1.19603348 1.0154612 1.19603348 1.03123474 2.41622925 C1.12910568 9.9209152 1.23160513 17.42551674 1.33933926 24.93006706 C1.39456566 28.78847246 1.44798519 32.64688544 1.49731445 36.50537109 C1.54496221 40.22718122 1.59730514 43.94889809 1.65294075 47.67059708 C1.67336245 49.09237478 1.69207585 50.51417806 1.70907402 51.93600082 C1.73312181 53.92337631 1.76373998 55.91066905 1.79467773 57.89794922 C1.81022202 59.03046112 1.8257663 60.16297302 1.84178162 61.32980347 C1.82267002 63.97327793 1.82267002 63.97327793 3 66 C3.06996014 67.70702735 3.08440154 69.41668003 3.0625 71.125 C3.05347656 72.03507812 3.04445313 72.94515625 3.03515625 73.8828125 C3.02355469 74.58148438 3.01195312 75.28015625 3 76 C2.34 76 1.68 76 1 76 C-0.49282393 73.01435214 -0.11916977 70.31016282 -0.11352539 66.97998047 C-0.11367142 66.25792419 -0.11381744 65.53586792 -0.1139679 64.79193115 C-0.11327007 62.40031959 -0.10548375 60.00878549 -0.09765625 57.6171875 C-0.09579161 55.96094811 -0.09436792 54.30470816 -0.09336853 52.64846802 C-0.08954699 48.28532392 -0.07971978 43.922213 -0.06866455 39.55908203 C-0.05844264 35.10840301 -0.05386924 30.65771863 -0.04882812 26.20703125 C-0.0380972 17.47133892 -0.02102512 8.73567359 0 0 Z " fill="#30453E" transform="translate(347,198)"/>
<path d="M0 0 C4.75 0.75 4.75 0.75 7 3 C7.66 2.01 8.32 1.02 9 0 C10.32 0 11.64 0 13 0 C12.38722388 2.96175123 11.74627478 4.38058783 10 7 C9.60986284 8.9896995 9.26797351 10.99019869 9 13 C7.68 13 6.36 13 5 13 C4.731875 11.9275 4.46375 10.855 4.1875 9.75 C3.12368849 6.39059522 2.16633521 4.65868412 0 2 C0 1.34 0 0.68 0 0 Z " fill="#345246" transform="translate(155,370)"/>
<path d="M0 0 C0.99 0.33 1.98 0.66 3 1 C3 1.66 3 2.32 3 3 C1.68 3 0.36 3 -1 3 C-1 27.42 -1 51.84 -1 77 C-1.33 77 -1.66 77 -2 77 C-2.04627664 67.2557762 -2.08184536 57.51157841 -2.10362434 47.76726723 C-2.11407551 43.2429174 -2.1282589 38.71864259 -2.15087891 34.19433594 C-2.17255993 29.83068476 -2.18455858 25.46710587 -2.18975449 21.103405 C-2.19345879 19.43597653 -2.20069207 17.76855215 -2.21146011 16.10115433 C-2.2259122 13.77128705 -2.22798061 11.44172106 -2.22705078 9.11181641 C-2.23424133 8.41770157 -2.24143188 7.72358673 -2.24884033 7.00843811 C-2.22810432 2.22810432 -2.22810432 2.22810432 0 0 Z " fill="#2D4C40" transform="translate(138,195)"/>
<path d="M0 0 C2.64 0 5.28 0 8 0 C7.814375 0.7425 7.62875 1.485 7.4375 2.25 C7.00796892 4.94990963 7.14877026 6.44631077 8 9 C6.02 9.99 6.02 9.99 4 11 C4 11.66 4 12.32 4 13 C2.68 13 1.36 13 0 13 C0 8.71 0 4.42 0 0 Z " fill="#2E5142" transform="translate(249,370)"/>
<path d="M0 0 C3.3 0 6.6 0 10 0 C10 1.32 10 2.64 10 4 C9.01 4 8.02 4 7 4 C7 6.97 7 9.94 7 13 C5.68 13 4.36 13 3 13 C3 10.03 3 7.06 3 4 C2.01 4 1.02 4 0 4 C0 2.68 0 1.36 0 0 Z " fill="#305444" transform="translate(281,370)"/>
<path d="M0 0 C-1 1 -2 2 -3 3 C-3.4228125 3.4640625 -3.845625 3.928125 -4.28125 4.40625 C-6.40849622 6.3787874 -8.68461926 7.72477749 -11.1875 9.1875 C-12.53908203 9.98220703 -12.53908203 9.98220703 -13.91796875 10.79296875 C-14.60503906 11.19128906 -15.29210937 11.58960938 -16 12 C-15.71998862 7.98650355 -15.24236211 6.27964858 -12.5625 3.1875 C-8.19496808 -0.54088091 -5.58424264 -0.09006843 0 0 Z " fill="#335347" transform="translate(279,190)"/>
<path d="M0 0 C3.13536587 1.18447155 4.15217582 2.2030528 5.8125 5.0625 C4.92498047 5.20945313 4.92498047 5.20945313 4.01953125 5.359375 C-1.05792139 6.32019801 -4.36263744 7.3610201 -8.1875 11.0625 C-9.0625 8.375 -9.0625 8.375 -9.1875 5.0625 C-6.08359516 1.50436519 -4.73963401 0.092934 0 0 Z " fill="#365548" transform="translate(241.1875,195.9375)"/>
<path d="M0 0 C0.66 0.33 1.32 0.66 2 1 C1.67 1.66 1.34 2.32 1 3 C1.66 3.33 2.32 3.66 3 4 C2.40772295 6.10754422 1.80073662 8.21095876 1.1875 10.3125 C0.85105469 11.48425781 0.51460938 12.65601563 0.16796875 13.86328125 C-1.23034754 17.61862567 -2.46367997 19.23183998 -6 21 C-7.87379605 21.07033769 -9.75001102 21.0843022 -11.625 21.0625 C-12.62789063 21.05347656 -13.63078125 21.04445313 -14.6640625 21.03515625 C-15.43492187 21.02355469 -16.20578125 21.01195312 -17 21 C-17 20.67 -17 20.34 -17 20 C-14.03 20 -11.06 20 -8 20 C-8 19.34 -8 18.68 -8 18 C-7.07960938 17.75636719 -7.07960938 17.75636719 -6.140625 17.5078125 C-2.79291899 15.14975681 -2.55173044 11.67993383 -1.75 7.875 C-1.57726562 7.12089844 -1.40453125 6.36679687 -1.2265625 5.58984375 C-0.80277816 3.72990139 -0.39940976 1.86532855 0 0 Z " fill="#2F483E" transform="translate(305,255)"/>
<path d="M0 0 C0.99 0 1.98 0 3 0 C3 4.29 3 8.58 3 13 C1.68 13 0.36 13 -1 13 C-1.02686553 11.02090602 -1.04633375 9.04171029 -1.0625 7.0625 C-1.07410156 5.96035156 -1.08570313 4.85820312 -1.09765625 3.72265625 C-1 1 -1 1 0 0 Z " fill="#325143" transform="translate(268,370)"/>
<path d="M0 0 C0.33 0.66 0.66 1.32 1 2 C2.91697937 1.85833643 4.83357723 1.71150416 6.75 1.5625 C7.81734375 1.48128906 8.8846875 1.40007812 9.984375 1.31640625 C12.43679962 1.05909227 14.63921291 0.68187782 17 0 C17 2.64 17 5.28 17 8 C16.01 8.495 16.01 8.495 15 9 C15 7.02 15 5.04 15 3 C14.01 3.33 13.02 3.66 12 4 C10.50225982 4.09225211 9.00057026 4.1300019 7.5 4.125 C6.7265625 4.12757813 5.953125 4.13015625 5.15625 4.1328125 C3 4 3 4 0 3 C0 2.01 0 1.02 0 0 Z " fill="#394C44" transform="translate(268,255)"/>
<path d="M0 0 C3.3 1.98 6.6 3.96 10 6 C9.67 6.99 9.34 7.98 9 9 C5.45529741 8.70460812 4.21784705 8.22373481 1.6875 5.625 C0 3 0 3 0 0 Z " fill="#354D46" transform="translate(205,220)"/>
<path d="M0 0 C6.93 0.495 6.93 0.495 14 1 C11.07735566 2.46132217 9.07536854 3.34099246 6 4 C6.66 4.66 7.32 5.32 8 6 C6.35 6 4.7 6 3 6 C2.67 5.01 2.34 4.02 2 3 C1.34 2.67 0.68 2.34 0 2 C0 1.34 0 0.68 0 0 Z " fill="#3A574B" transform="translate(242,186)"/>
<path d="M0 0 C0.93065133 2.60582371 1.14917407 3.64198224 0.0625 6.25 C-0.4634375 7.11625 -0.4634375 7.11625 -1 8 C-1.33 7.67 -1.66 7.34 -2 7 C-2.66 7.66 -3.32 8.32 -4 9 C-4.33 8.34 -4.66 7.68 -5 7 C-5.99 7.495 -5.99 7.495 -7 8 C-7 6.68 -7 5.36 -7 4 C-4.35261084 2.5393715 -3.10551666 2 0 2 C0 1.34 0 0.68 0 0 Z " fill="#344B42" transform="translate(296,256)"/>
<path d="M0 0 C1.20076172 0.06960938 1.20076172 0.06960938 2.42578125 0.140625 C3.23402344 0.17671875 4.04226562 0.2128125 4.875 0.25 C5.79732422 0.31960938 5.79732422 0.31960938 6.73828125 0.390625 C6.40828125 1.050625 6.07828125 1.710625 5.73828125 2.390625 C3.234375 3.0234375 3.234375 3.0234375 0.17578125 3.515625 C-1.34208984 3.76699219 -1.34208984 3.76699219 -2.890625 4.0234375 C-4.06431641 4.20519531 -4.06431641 4.20519531 -5.26171875 4.390625 C-2.89519796 0.50003419 -2.89519796 0.50003419 0 0 Z " fill="#315045" transform="translate(236.26171875,259.609375)"/>
<path d="M0 0 C0.99 0.33 1.98 0.66 3 1 C-1.39453125 5.00390625 -1.39453125 5.00390625 -3 6 C-3.99 5.67 -4.98 5.34 -6 5 C-1.60546875 0.99609375 -1.60546875 0.99609375 0 0 Z " fill="#394F48" transform="translate(269,199)"/>
<path d="M0 0 C2.31 0.66 4.62 1.32 7 2 C4 4 4 4 2 5 C1.01 4.34 0.02 3.68 -1 3 C-0.67 2.01 -0.34 1.02 0 0 Z " fill="#2E4E42" transform="translate(343,379)"/>
<path d="M0 0 C1.24546405 2.49092811 0.7767578 3.41080733 0 6 C-1.32 6 -2.64 6 -4 6 C-3.67 4.35 -3.34 2.7 -3 1 C-2.01 0.67 -1.02 0.34 0 0 Z " fill="#375549" transform="translate(181,377)"/>
<path d="M0 0 C0 0.99 0 1.98 0 3 C-2.95664519 4.4783226 -5.74229737 4.06032783 -9 4 C-9 3.34 -9 2.68 -9 2 C-6.03 1.34 -3.06 0.68 0 0 Z " fill="#39554A" transform="translate(256,256)"/>
<path d="M0 0 C0 1.65 0 3.3 0 5 C-1.32 5.33 -2.64 5.66 -4 6 C-4.33 5.01 -4.66 4.02 -5 3 C-1.125 0 -1.125 0 0 0 Z " fill="#275A44" transform="translate(206,342)"/>
<path d="M0 0 C1.9375 0.75 1.9375 0.75 4 2 C4.75 4.125 4.75 4.125 5 6 C4.34 6 3.68 6 3 6 C3 5.34 3 4.68 3 4 C2.01 3.67 1.02 3.34 0 3 C0 2.01 0 1.02 0 0 Z " fill="#384C46" transform="translate(303,226)"/>
<path d="" fill="#666666" transform="translate(0,0)"/>
</svg>
